g Bullet_01_Shell
v -0.0059459526 1.3969839E-08 -0.013817558
v -0.0018373989 0.0056549553 -0.013817558
v -0.004810404 0.0034949686 -0.013817558
v 0.004810377 0.0034949686 -0.013817558
v 0.0018374072 0.0056549553 -0.013817558
v 0.005945962 1.3969839E-08 -0.013817558
v 0.004810377 -0.0034949407 -0.013817558
v -0.0018373989 -0.0056549637 -0.013817558
v 0.0018374072 -0.0056549637 -0.013817558
v -0.004810404 -0.0034949407 -0.013817558
v 0.0013969727 -0.004299458 0.025122454
v -1.3969839E-08 1.3969839E-08 0.008245014
v 0.0036573373 -0.0026572244 0.025122454
v -0.0013969634 -0.004299458 0.025122454
v 0.004520715 1.3969839E-08 0.025122454
v -0.003657328 -0.0026572244 0.025122454
v 0.0036573373 0.0026572142 0.025122454
v -0.004520705 1.3969839E-08 0.025122454
v 0.0013969727 0.004299449 0.025122454
v -0.003657328 0.0026572142 0.025122454
v -0.0013969634 0.004299449 0.025122454
v -0.005447697 0.0039579812 -0.0130681135
v -0.0059459526 1.3969839E-08 -0.013817558
v -0.004810404 0.0034949686 -0.013817558
v -0.002080826 0.006404139 -0.0130681135
v -0.0018373989 0.0056549553 -0.013817558
v -0.006733721 1.3969839E-08 -0.0130681135
v -0.004810404 -0.0034949407 -0.013817558
v 0.0020808345 0.006404139 -0.0130681135
v 0.0018374072 0.0056549553 -0.013817558
v -0.005447697 -0.0039579915 -0.0130681135
v -0.0018373989 -0.0056549637 -0.013817558
v 0.00544767 0.0039579812 -0.0130681135
v 0.004810377 0.0034949686 -0.013817558
v -0.002080826 -0.006404148 -0.0130681135
v 0.0018374072 -0.0056549637 -0.013817558
v 0.0067336936 1.3969839E-08 -0.0130681135
v 0.005945962 1.3969839E-08 -0.013817558
v 0.0020808345 -0.006404148 -0.0130681135
v 0.004810377 -0.0034949407 -0.013817558
v 0.00544767 -0.0039579542 -0.0130681135
v -0.0054392684 -0.0039518634 0.014513109
v -0.0020775944 -0.0063942326 0.014513109
v 0.0020776037 -0.0063942326 0.014513109
v 0.0054392396 -0.003951827 0.014513109
v 0.0067232954 1.3969839E-08 0.014513109
v 0.0054392396 0.003951855 0.014513109
v -0.0067232866 1.3969839E-08 0.014513109
v 0.0020776037 0.0063942242 0.014513109
v -0.0054392684 0.003951855 0.014513109
v -0.0020775944 0.0063942242 0.014513109
v 0.002045555 -0.0062955245 0.015487969
v 0.0053552752 -0.0038908487 0.015487969
v 0.0066195 1.3969839E-08 0.015487969
v 0.0053552752 0.0038908403 0.015487969
v 0.002045555 0.006295515 0.015487969
v -0.0020455457 0.006295515 0.015487969
v -0.0020455457 -0.0062955245 0.015487969
v -0.0053553022 0.0038908403 0.015487969
v -0.0053553022 -0.0038908487 0.015487969
v -0.0066194907 1.3969839E-08 0.015487969
v 0.0048138676 0.0034974571 0.018493542
v 0.0018387437 0.00565904 0.018493542
v -0.0018387344 0.00565904 0.018493542
v -0.0048138592 0.0034974571 0.018493542
v -0.005950261 1.3969839E-08 0.018493542
v -0.0048138592 -0.0034974664 0.018493542
v 0.005950233 1.3969839E-08 0.018493542
v -0.0018387344 -0.005659011 0.018493542
v 0.0048138676 -0.0034974664 0.018493542
v 0.0018387437 -0.005659011 0.018493542
v -0.0018218011 0.005606938 0.019003423
v -0.0047695544 0.0034652967 0.019003423
v -0.0058954842 1.3969839E-08 0.019003423
v -0.0047695544 -0.0034652688 0.019003423
v -0.0018218011 -0.0056069465 0.019003423
v 0.0018218104 -0.0056069465 0.019003423
v 0.0018218104 0.005606938 0.019003423
v 0.0047695646 -0.0034652688 0.019003423
v 0.0047695646 0.0034652967 0.019003423
v 0.0058954945 1.3969839E-08 0.019003423
v -0.0047555547 -0.0034551313 0.024217224
v -0.0018164534 -0.0055904957 0.024217224
v 0.0018164627 -0.0055904957 0.024217224
v 0.004755564 -0.0034551313 0.024217224
v 0.0058781886 1.3969839E-08 0.024217224
v 0.004755564 0.003455121 0.024217224
v -0.0058782175 1.3969839E-08 0.024217224
v 0.0018164627 0.0055905227 0.024217224
v -0.0047555547 0.003455121 0.024217224
v -0.0018164534 0.0055905227 0.024217224
v 0.0017248103 -0.005308372 0.024666125
v 0.00451559 -0.0032807766 0.024666125
v 0.005581583 1.3969839E-08 0.024666125
v 0.00451559 0.0032807682 0.024666088
v 0.0017248103 0.005308401 0.024666125
v -0.001724801 0.005308401 0.024666125
v -0.001724801 -0.005308372 0.024666125
v -0.004515581 0.0032807682 0.024666088
v -0.004515581 -0.0032807766 0.024666125
v -0.0055815727 1.3969839E-08 0.024666125
v 0.0036573373 0.0026572142 0.025122454
v 0.004520715 1.3969839E-08 0.025122454
v 0.0013969727 0.004299449 0.025122454
v 0.0036573373 -0.0026572244 0.025122454
v -0.0013969634 0.004299449 0.025122454
v 0.0013969727 -0.004299458 0.025122454
v -0.003657328 0.0026572142 0.025122454
v -0.0013969634 -0.004299458 0.025122454
v -0.004520705 1.3969839E-08 0.025122454
v -0.003657328 -0.0026572244 0.025122454
vt 0.9596316 0.029482082
vt 0.7868703 0.14885336
vt 0.8528516 0.06246549
vt 0.8528516 0.34200677
vt 0.7868703 0.2556189
vt 0.9596316 0.3749902
vt 0.8528516 0.34200677
vt 0.7868703 0.14885336
vt 0.7868703 0.2556189
vt 0.8528516 0.06246549
vt 0.67437357 0.019249843
vt 0.73207647 0.1461759
vt 0.78977937 0.019249843
vt 0.78977937 0.019249843
vt 0.67437357 0.019249843
vt 0.67437357 0.019249843
vt 0.78977937 0.019249843
vt 0.78977937 0.019249843
vt 0.67437357 0.019249843
vt 0.67437357 0.019249843
vt 0.78977937 0.019249843
vt 0.3508207 0.10908224
vt 0.039236717 0.046458624
vt 0.3508207 0.046458624
vt 0.039236717 0.10908224
vt 0.039236717 0.046458624
vt 0.039236717 0.10908224
vt 0.3508207 0.046458624
vt 0.3508207 0.10908224
vt 0.3508207 0.046458624
vt 0.3508207 0.10908224
vt 0.039236717 0.046458624
vt 0.039236717 0.10908224
vt 0.039236717 0.046458624
vt 0.039236717 0.10908224
vt 0.3508207 0.046458624
vt 0.3508207 0.10908224
vt 0.3508207 0.046458624
vt 0.3508207 0.10908224
vt 0.039236717 0.046458624
vt 0.039236717 0.10908224
vt 0.3508207 0.5837452
vt 0.039236717 0.5837452
vt 0.3508207 0.5837452
vt 0.039236717 0.5837452
vt 0.3508207 0.5837452
vt 0.039236717 0.5837452
vt 0.039236717 0.5837452
vt 0.3508207 0.5837452
vt 0.3508207 0.5837452
vt 0.039236717 0.5837452
vt 0.3508207 0.6235308
vt 0.039236717 0.6235308
vt 0.3508207 0.6235308
vt 0.039236717 0.6235308
vt 0.3508207 0.6235308
vt 0.039236717 0.6235308
vt 0.039236717 0.6235308
vt 0.3508207 0.6235308
vt 0.3508207 0.6235308
vt 0.039236717 0.6235308
vt 0.039236717 0.79717493
vt 0.3508207 0.79717493
vt 0.039236717 0.79717493
vt 0.3508207 0.79717493
vt 0.039236717 0.79717493
vt 0.3508207 0.79717493
vt 0.3508207 0.79717493
vt 0.039236717 0.79717493
vt 0.039236717 0.79717493
vt 0.3508207 0.79717493
vt 0.039236717 0.8292176
vt 0.3508207 0.8292176
vt 0.039236717 0.8292176
vt 0.3508207 0.8292176
vt 0.039236717 0.8292176
vt 0.3508207 0.8292176
vt 0.3508207 0.8292176
vt 0.039236717 0.8292176
vt 0.039236717 0.8292176
vt 0.3508207 0.8292176
vt 0.3508207 0.9326399
vt 0.039236717 0.9326399
vt 0.3508207 0.9326399
vt 0.039236717 0.9326399
vt 0.3508207 0.9326399
vt 0.039236717 0.9326399
vt 0.039236717 0.9326399
vt 0.3508207 0.9326399
vt 0.3508207 0.9326399
vt 0.039236717 0.9326399
vt 0.3508207 0.9677219
vt 0.039236717 0.9677219
vt 0.3508207 0.9677219
vt 0.039236717 0.9677219
vt 0.3508207 0.9677219
vt 0.039236717 0.9677219
vt 0.039236717 0.9677219
vt 0.3508207 0.9677219
vt 0.3508207 0.9677219
vt 0.039236717 0.9677219
vt 0.039236717 0.9677219
vt 0.3508207 0.9677219
vt 0.3508207 0.9677219
vt 0.039236717 0.9677219
vt 0.039236717 0.9677219
vt 0.3508207 0.9677219
vt 0.3508207 0.9677219
vt 0.039236717 0.9677219
vt 0.039236717 0.9677219
vt 0.3508207 0.9677219
vn -0.0009775162 0.0009775162 -0.99999905
vn -0.0009775162 0.0009775162 -0.99999905
vn -0.0009775162 0.0009775162 -0.99999905
vn -0.0009775162 0.0009775162 -0.99999905
vn -0.0009775162 0.0009775162 -0.99999905
vn -0.0009775162 0.0009775162 -0.99999905
vn -0.0009775162 0.0009775162 -0.99999905
vn -0.0009775162 0.0009775162 -0.99999905
vn -0.0009775162 0.0009775162 -0.99999905
vn -0.0009775162 0.0009775162 -0.99999905
vn -0.29814255 0.91788816 0.26190135
vn -0.80840623 -0.58748746 -0.036576714
vn -0.7810358 0.56793714 0.2596739
vn -0.80840623 -0.58748746 -0.036576714
vn -0.966764 0.0009775162 0.25566864
vn 0.7810358 0.56793714 0.2596739
vn -0.7810358 -0.56793714 0.2596739
vn 0.966764 0.0009775162 0.25566864
vn -0.29814255 -0.9178881 0.26190156
vn 0.7810358 -0.56793714 0.2596739
vn 0.29814255 -0.9178881 0.26190156
vn -0.80840623 0.58748746 -0.036576714
vn -0.0009775162 0.0009775162 -0.99999905
vn -0.0009775162 0.0009775162 -0.99999905
vn -0.30977094 0.9508112 -0
vn -0.0009775162 0.0009775162 -0.99999905
vn -0.9999995 0.0009775162 -0
vn -0.0009775162 0.0009775162 -0.99999905
vn 0.30977094 0.9508112 -0
vn -0.0009775162 0.0009775162 -0.99999905
vn -0.80840623 -0.58748746 -0.036576714
vn -0.0009775162 0.0009775162 -0.99999905
vn 0.80840623 0.58748746 -0.036576714
vn -0.0009775162 0.0009775162 -0.99999905
vn -0.30977094 -0.9508112 -0
vn -0.0009775162 0.0009775162 -0.99999905
vn 0.9999995 0.0009775162 -0
vn -0.0009775162 0.0009775162 -0.99999905
vn 0.30977094 -0.9508112 -0
vn -0.0009775162 0.0009775162 -0.99999905
vn 0.80840623 -0.58748746 -0.036576714
vn -0.80840623 -0.58748746 -0.036576714
vn -0.30977094 -0.9508112 -0
vn 0.30977094 -0.9508112 -0
vn 0.80840623 -0.58748746 -0.036576714
vn 0.9999995 0.0009775162 -0
vn 0.80840623 0.58748746 -0.036576714
vn -0.9999995 0.0009775162 -0
vn 0.30977094 0.9508112 -0
vn -0.80840623 0.58748746 -0.036576714
vn -0.30977094 0.9508112 -0
vn 0.30596268 -0.9393935 0.1546825
vn 0.7986311 -0.5796673 0.16178438
vn 0.9863143 0.0009775162 0.1648732
vn 0.7986311 0.5796673 0.16178438
vn 0.30596268 0.9393935 0.1546825
vn -0.30596268 0.9393935 0.1546825
vn -0.30596268 -0.9393935 0.1546825
vn -0.7986311 0.5796673 0.16178438
vn -0.7986311 -0.5796673 0.16178438
vn -0.9863143 0.0009775162 0.1648732
vn 0.7986311 0.5796673 0.16178438
vn 0.30400765 0.9374385 0.16967158
vn -0.30400765 0.9374385 0.16967158
vn -0.7986311 0.5796673 0.16178438
vn -0.9863143 0.0009775162 0.1648732
vn -0.7986311 -0.5796673 0.16178438
vn 0.9863143 0.0009775162 0.1648732
vn -0.30400765 -0.9374385 0.16967158
vn 0.7986311 -0.5796673 0.16178438
vn 0.30400765 -0.9374385 0.16967158
vn -0.30977094 0.9508112 -0
vn -0.80840623 0.58748746 -0.036576714
vn -0.9999995 0.0009775162 -0
vn -0.80840623 -0.58748746 -0.036576714
vn -0.30977094 -0.9508112 -0
vn 0.30977094 -0.9508112 -0
vn 0.30977094 0.9508112 -0
vn 0.80840623 -0.58748746 -0.036576714
vn 0.80840623 0.58748746 -0.036576714
vn 0.9999995 0.0009775162 -0
vn -0.80840623 -0.58748746 -0.036576714
vn -0.30977094 -0.9508112 -0
vn 0.30977094 -0.9508112 -0
vn 0.80840623 -0.58748746 -0.036576714
vn 0.9999995 0.0009775162 -0
vn 0.80840623 0.58748746 -0.036576714
vn -0.9999995 0.0009775162 -0
vn 0.30977094 0.9508112 -0
vn -0.80840623 0.58748746 -0.036576714
vn -0.30977094 0.9508112 -0
vn 0.12218958 -0.3763439 0.9183871
vn 0.31964797 -0.23167145 0.9187783
vn 0.39589423 0.0009775162 0.91829556
vn 0.31964797 0.23167145 0.9187783
vn 0.12218958 0.37634385 0.9183872
vn -0.12218952 0.37634385 0.9183872
vn -0.12218952 -0.3763439 0.9183871
vn -0.3196479 0.23167145 0.9187783
vn -0.3196479 -0.23167145 0.9187783
vn -0.3958943 0.0009775162 0.91829556
vn 0.31964797 0.23167145 0.9187783
vn 0.39589423 0.0009775162 0.91829556
vn 0.12218958 0.37634385 0.9183872
vn 0.31964797 -0.23167145 0.9187783
vn -0.12218952 0.37634385 0.9183872
vn 0.12218958 -0.3763439 0.9183871
vn -0.3196479 0.23167145 0.9187783
vn -0.12218952 -0.3763439 0.9183871
vn -0.3958943 0.0009775162 0.91829556
vn -0.3196479 -0.23167145 0.9187783
g Bullet_01_Shell_0
f 3/3/3 2/2/2 1/1/1
f 2/2/2 4/4/4 1/1/1
f 5/5/5 4/4/4 2/2/2
f 1/1/1 4/4/4 6/6/6
f 7/7/7 1/1/1 6/6/6
f 8/8/8 1/1/1 7/7/7
f 9/9/9 8/8/8 7/7/7
f 10/10/10 1/1/1 8/8/8
f 13/13/13 12/12/12 11/11/11
f 11/11/11 12/12/12 14/14/14
f 15/15/15 12/12/12 13/13/13
f 14/14/14 12/12/12 16/16/16
f 17/17/17 12/12/12 15/15/15
f 16/16/16 12/12/12 18/18/18
f 19/19/19 12/12/12 17/17/17
f 18/18/18 12/12/12 20/20/20
f 21/21/21 12/12/12 19/19/19
f 20/20/20 12/12/12 21/21/21
f 24/24/24 23/23/23 22/22/22
f 22/22/22 25/25/25 24/24/24
f 26/26/26 24/24/24 25/25/25
f 27/27/27 22/22/22 23/23/23
f 23/23/23 28/28/28 27/27/27
f 25/25/25 29/29/29 26/26/26
f 30/30/30 26/26/26 29/29/29
f 31/31/31 27/27/27 28/28/28
f 28/28/28 32/32/32 31/31/31
f 29/29/29 33/33/33 30/30/30
f 34/34/34 30/30/30 33/33/33
f 35/35/35 31/31/31 32/32/32
f 32/32/32 36/36/36 35/35/35
f 33/33/33 37/37/37 34/34/34
f 38/38/38 34/34/34 37/37/37
f 39/39/39 35/35/35 36/36/36
f 36/36/36 40/40/40 39/39/39
f 40/40/40 38/38/38 41/41/41
f 37/37/37 41/41/41 38/38/38
f 41/41/41 39/39/39 40/40/40
f 31/31/31 42/42/42 27/27/27
f 35/35/35 43/43/43 31/31/31
f 42/42/42 31/31/31 43/43/43
f 39/39/39 44/44/44 35/35/35
f 43/43/43 35/35/35 44/44/44
f 41/41/41 45/45/45 39/39/39
f 44/44/44 39/39/39 45/45/45
f 37/37/37 46/46/46 41/41/41
f 45/45/45 41/41/41 46/46/46
f 33/33/33 47/47/47 37/37/37
f 46/46/46 37/37/37 47/47/47
f 48/48/48 27/27/27 42/42/42
f 27/27/27 48/48/48 22/22/22
f 47/47/47 33/33/33 49/49/49
f 29/29/29 49/49/49 33/33/33
f 50/50/50 22/22/22 48/48/48
f 22/22/22 50/50/50 25/25/25
f 25/25/25 51/51/51 29/29/29
f 49/49/49 29/29/29 51/51/51
f 51/51/51 25/25/25 50/50/50
f 44/44/44 45/45/45 52/52/52
f 45/45/45 46/46/46 53/53/53
f 53/53/53 52/52/52 45/45/45
f 46/46/46 47/47/47 54/54/54
f 54/54/54 53/53/53 46/46/46
f 47/47/47 49/49/49 55/55/55
f 55/55/55 54/54/54 47/47/47
f 49/49/49 51/51/51 56/56/56
f 56/56/56 55/55/55 49/49/49
f 51/51/51 50/50/50 57/57/57
f 57/57/57 56/56/56 51/51/51
f 52/52/52 58/58/58 44/44/44
f 43/43/43 44/44/44 58/58/58
f 59/59/59 57/57/57 50/50/50
f 50/50/50 48/48/48 59/59/59
f 58/58/58 60/60/60 43/43/43
f 42/42/42 43/43/43 60/60/60
f 48/48/48 42/42/42 61/61/61
f 61/61/61 59/59/59 48/48/48
f 60/60/60 61/61/61 42/42/42
f 55/55/55 62/62/62 54/54/54
f 56/56/56 63/63/63 55/55/55
f 62/62/62 55/55/55 63/63/63
f 57/57/57 64/64/64 56/56/56
f 63/63/63 56/56/56 64/64/64
f 59/59/59 65/65/65 57/57/57
f 64/64/64 57/57/57 65/65/65
f 61/61/61 66/66/66 59/59/59
f 65/65/65 59/59/59 66/66/66
f 60/60/60 67/67/67 61/61/61
f 66/66/66 61/61/61 67/67/67
f 68/68/68 54/54/54 62/62/62
f 54/54/54 68/68/68 53/53/53
f 67/67/67 60/60/60 69/69/69
f 58/58/58 69/69/69 60/60/60
f 70/70/70 53/53/53 68/68/68
f 53/53/53 70/70/70 52/52/52
f 52/52/52 71/71/71 58/58/58
f 69/69/69 58/58/58 71/71/71
f 71/71/71 52/52/52 70/70/70
f 64/64/64 65/65/65 72/72/72
f 65/65/65 66/66/66 73/73/73
f 73/73/73 72/72/72 65/65/65
f 66/66/66 67/67/67 74/74/74
f 74/74/74 73/73/73 66/66/66
f 67/67/67 69/69/69 75/75/75
f 75/75/75 74/74/74 67/67/67
f 69/69/69 71/71/71 76/76/76
f 76/76/76 75/75/75 69/69/69
f 71/71/71 70/70/70 77/77/77
f 77/77/77 76/76/76 71/71/71
f 72/72/72 78/78/78 64/64/64
f 63/63/63 64/64/64 78/78/78
f 79/79/79 77/77/77 70/70/70
f 70/70/70 68/68/68 79/79/79
f 78/78/78 80/80/80 63/63/63
f 62/62/62 63/63/63 80/80/80
f 68/68/68 62/62/62 81/81/81
f 81/81/81 79/79/79 68/68/68
f 80/80/80 81/81/81 62/62/62
f 75/75/75 82/82/82 74/74/74
f 76/76/76 83/83/83 75/75/75
f 82/82/82 75/75/75 83/83/83
f 77/77/77 84/84/84 76/76/76
f 83/83/83 76/76/76 84/84/84
f 79/79/79 85/85/85 77/77/77
f 84/84/84 77/77/77 85/85/85
f 81/81/81 86/86/86 79/79/79
f 85/85/85 79/79/79 86/86/86
f 80/80/80 87/87/87 81/81/81
f 86/86/86 81/81/81 87/87/87
f 88/88/88 74/74/74 82/82/82
f 74/74/74 88/88/88 73/73/73
f 87/87/87 80/80/80 89/89/89
f 78/78/78 89/89/89 80/80/80
f 90/90/90 73/73/73 88/88/88
f 73/73/73 90/90/90 72/72/72
f 72/72/72 91/91/91 78/78/78
f 89/89/89 78/78/78 91/91/91
f 91/91/91 72/72/72 90/90/90
f 84/84/84 85/85/85 92/92/92
f 85/85/85 86/86/86 93/93/93
f 93/93/93 92/92/92 85/85/85
f 86/86/86 87/87/87 94/94/94
f 94/94/94 93/93/93 86/86/86
f 87/87/87 89/89/89 95/95/95
f 95/95/95 94/94/94 87/87/87
f 89/89/89 91/91/91 96/96/96
f 96/96/96 95/95/95 89/89/89
f 91/91/91 90/90/90 97/97/97
f 97/97/97 96/96/96 91/91/91
f 92/92/92 98/98/98 84/84/84
f 83/83/83 84/84/84 98/98/98
f 99/99/99 97/97/97 90/90/90
f 90/90/90 88/88/88 99/99/99
f 98/98/98 100/100/100 83/83/83
f 82/82/82 83/83/83 100/100/100
f 88/88/88 82/82/82 101/101/101
f 101/101/101 99/99/99 88/88/88
f 100/100/100 101/101/101 82/82/82
f 95/95/95 102/102/102 94/94/94
f 103/103/103 94/94/94 102/102/102
f 102/102/102 95/95/95 104/104/104
f 94/94/94 103/103/103 93/93/93
f 96/96/96 104/104/104 95/95/95
f 105/105/105 93/93/93 103/103/103
f 104/104/104 96/96/96 106/106/106
f 93/93/93 105/105/105 92/92/92
f 97/97/97 106/106/106 96/96/96
f 107/107/107 92/92/92 105/105/105
f 106/106/106 97/97/97 108/108/108
f 92/92/92 107/107/107 98/98/98
f 99/99/99 108/108/108 97/97/97
f 109/109/109 98/98/98 107/107/107
f 108/108/108 99/99/99 110/110/110
f 98/98/98 109/109/109 100/100/100
f 101/101/101 110/110/110 99/99/99
f 111/111/111 100/100/100 109/109/109
f 110/110/110 101/101/101 111/111/111
f 100/100/100 111/111/111 101/101/101
