g Ellectric002
v -0.009211642 -3.0907695 -0.2775161
v 0.2595787 -3.2228158 1.1090984
v 0.24722451 -3.5130365 -0.24895875
v -0.017893815 -2.824056 1.0560436
v -0.26564795 -2.6685033 -0.30607408
v 0.2448067 -2.4997203 2.2729506
v -0.29533154 -2.4252493 1.003163
v 0.022667501 -2.4002793 1.8726029
v 0.18835524 -1.8442122 2.3816614
v -0.1997369 -2.3004315 1.4725047
v -0.060709782 -1.8780771 2.0256138
v 0.16330463 -1.1723459 2.1375577
v -0.3097432 -1.911466 1.6694998
v -0.0077072517 -1.2859216 1.8020045
v 0.22221576 -0.5088973 1.6103
v -0.17868228 -1.399394 1.4663981
v 0.0035367198 -0.6467024 1.3793343
v -0.21514238 -0.78450745 1.1483687
v -0.027039751 3.1727235 -0.12717728
v -0.18266958 2.5060675 0.89321417
v -0.2521853 2.69242 -0.016366635
v -0.030703813 2.8385613 0.86189383
v 0.19810563 3.6530275 -0.23798843
v -0.13327785 2.674719 1.6509612
v 0.12126181 3.1710548 0.8305732
v -0.03624561 3.0036414 1.8145956
v -0.18398847 2.1552362 2.0188797
v 0.060786776 3.2968283 1.9657167
v -0.03804952 2.2324185 2.276073
v -0.16102043 1.5903661 1.8123773
v 0.1078895 2.309601 2.5332663
v -0.036480628 1.510852 2.0888484
v -0.27165696 1.0135742 1.2693429
v 0.088059016 1.4313376 2.3653197
v -0.03220514 0.88138986 1.3898407
v 0.20724638 0.7492057 1.5103383
v -3.189016 0.6981101 -0.30295515
v -2.974677 0.2616849 0.6736295
v -3.164353 0.014850908 -0.37455332
v -2.98445 0.80850434 0.7438117
v -3.213679 1.3813695 -0.23135757
v -2.701736 0.43274775 1.3956224
v -2.9939325 1.355212 0.8150063
v -2.6679697 0.8791174 1.5248924
v -2.183545 0.4818645 1.3900621
v -2.6309333 1.3242675 1.6575696
v -1.9573659 0.8230208 1.5267668
v -1.3400502 0.3890927 0.9576631
v -1.7299391 1.1637938 1.6624229
v -1.2093998 0.7716357 1.1515787
v -0.61434567 0.15316543 1.4429743
v -1.0806195 1.1548535 1.3453419
v -0.53809965 0.6170329 1.6574938
v -0.46185347 1.0809002 1.8720137
vt 7.946628E-09 0.5
vt 0.19999999 0
vt -1.3909066E-08 0
vt 0.20000002 0.5
vt 2.9802322E-08 1
vt 0.4 0
vt 0.20000003 1
vt 0.4 0.5
vt 0.6 0
vt 0.40000004 1
vt 0.6 0.5
vt 0.79999995 0
vt 0.6 1
vt 0.8000001 0.49999994
vt 1 0
vt 0.8000001 0.99999994
vt 1 0.49999994
vt 1 0.99999994
vt 7.946628E-09 0.5
vt 0.19999999 0
vt -1.3909066E-08 0
vt 0.20000002 0.5
vt 2.9802322E-08 1
vt 0.4 0
vt 0.20000003 1
vt 0.4 0.5
vt 0.6 0
vt 0.40000004 1
vt 0.6 0.5
vt 0.79999995 0
vt 0.6 1
vt 0.8000001 0.49999994
vt 1 0
vt 0.8000001 0.99999994
vt 1 0.49999994
vt 1 0.99999994
vt 7.946628E-09 0.5
vt 0.19999999 0
vt -1.3909066E-08 0
vt 0.20000002 0.5
vt 2.9802322E-08 1
vt 0.4 0
vt 0.20000003 1
vt 0.4 0.5
vt 0.6 0
vt 0.40000004 1
vt 0.6 0.5
vt 0.79999995 0
vt 0.6 1
vt 0.8000001 0.49999994
vt 1 0
vt 0.8000001 0.99999994
vt 1 0.49999994
vt 1 0.99999994
vn -0.8385624 -0.5351295 0.10222301
vn -0.8249223 -0.5296033 0.19754358
vn -0.8381264 -0.5339332 0.11162184
vn -0.8225878 -0.5300146 0.20599484
vn -0.83897275 -0.5364535 0.09133732
vn -0.8354571 -0.3346852 0.43588686
vn -0.82262045 -0.53156775 0.20181984
vn -0.82053167 -0.4045518 0.40381384
vn -0.86491054 -0.012885464 0.5017607
vn -0.8061189 -0.46199435 0.369775
vn -0.86890954 -0.013019208 0.49479982
vn -0.85047275 0.2661011 0.453747
vn -0.8725852 -0.0415735 0.48668957
vn -0.8461486 0.28316727 0.4514963
vn -0.8368937 0.3512169 0.41982824
vn -0.84332335 0.28446466 0.45594463
vn -0.84248763 0.3045984 0.44433597
vn -0.84564865 0.25872248 0.46684164
vn -0.88809276 0.4369831 0.14260823
vn -0.915269 0.3998461 0.049047787
vn -0.8864322 0.43763146 0.15072094
vn -0.91270006 0.40651608 0.04151199
vn -0.88892806 0.43663564 0.1384056
vn -0.9440429 0.3052125 0.12501256
vn -0.9083938 0.41583323 0.043628678
vn -0.9438713 0.29871413 0.14098518
vn -0.92048097 0.026833678 0.38986525
vn -0.94381744 0.295462 0.14802305
vn -0.9147046 0.04982009 0.40104043
vn -0.8255274 -0.31284505 0.46971512
vn -0.9099815 0.06340054 0.40977305
vn -0.8371324 -0.3173803 0.44551003
vn -0.7686585 -0.4247205 0.47830603
vn -0.8521711 -0.28412607 0.4394049
vn -0.7583823 -0.4827908 0.43791476
vn -0.7442313 -0.5383946 0.39528602
vn -0.9792971 -0.049997754 0.19615702
vn -0.96312314 -0.050905824 0.2642012
vn -0.9799635 -0.049666252 0.19288522
vn -0.9559322 -0.051776078 0.28898618
vn -0.97842145 -0.050424296 0.20037173
vn -0.6614344 -0.1926173 0.72484696
vn -0.9524307 -0.05250437 0.30019808
vn -0.5666664 -0.21958902 0.7941472
vn 0.13372914 -0.40659353 0.90376896
vn -0.53906804 -0.22425374 0.81185955
vn 0.16558789 -0.43167073 0.88670236
vn -0.10600988 -0.44446382 0.889502
vn 0.2103271 -0.4569903 0.8642467
vn -0.15360124 -0.43068132 0.889337
vn -0.6047186 -0.22136152 0.7650586
vn -0.24119005 -0.40199548 0.8833046
vn -0.62103987 -0.21281728 0.754333
vn -0.6334712 -0.20614184 0.7458015
g Ellectric002_0
f 3/3/3 2/2/2 1/1/1
f 2/2/2 4/4/4 1/1/1
f 1/1/1 4/4/4 5/5/5
f 2/2/2 6/6/6 4/4/4
f 4/4/4 7/7/7 5/5/5
f 6/6/6 8/8/8 4/4/4
f 4/4/4 8/8/8 7/7/7
f 6/6/6 9/9/9 8/8/8
f 8/8/8 10/10/10 7/7/7
f 9/9/9 11/11/11 8/8/8
f 8/8/8 11/11/11 10/10/10
f 9/9/9 12/12/12 11/11/11
f 11/11/11 13/13/13 10/10/10
f 12/12/12 14/14/14 11/11/11
f 11/11/11 14/14/14 13/13/13
f 12/12/12 15/15/15 14/14/14
f 14/14/14 16/16/16 13/13/13
f 15/15/15 17/17/17 14/14/14
f 14/14/14 17/17/17 16/16/16
f 17/17/17 18/18/18 16/16/16
f 21/21/21 20/20/20 19/19/19
f 20/20/20 22/22/22 19/19/19
f 19/19/19 22/22/22 23/23/23
f 20/20/20 24/24/24 22/22/22
f 22/22/22 25/25/25 23/23/23
f 24/24/24 26/26/26 22/22/22
f 22/22/22 26/26/26 25/25/25
f 24/24/24 27/27/27 26/26/26
f 26/26/26 28/28/28 25/25/25
f 27/27/27 29/29/29 26/26/26
f 26/26/26 29/29/29 28/28/28
f 27/27/27 30/30/30 29/29/29
f 29/29/29 31/31/31 28/28/28
f 30/30/30 32/32/32 29/29/29
f 29/29/29 32/32/32 31/31/31
f 30/30/30 33/33/33 32/32/32
f 32/32/32 34/34/34 31/31/31
f 33/33/33 35/35/35 32/32/32
f 32/32/32 35/35/35 34/34/34
f 35/35/35 36/36/36 34/34/34
f 39/39/39 38/38/38 37/37/37
f 38/38/38 40/40/40 37/37/37
f 37/37/37 40/40/40 41/41/41
f 38/38/38 42/42/42 40/40/40
f 40/40/40 43/43/43 41/41/41
f 42/42/42 44/44/44 40/40/40
f 40/40/40 44/44/44 43/43/43
f 42/42/42 45/45/45 44/44/44
f 44/44/44 46/46/46 43/43/43
f 45/45/45 47/47/47 44/44/44
f 44/44/44 47/47/47 46/46/46
f 45/45/45 48/48/48 47/47/47
f 47/47/47 49/49/49 46/46/46
f 48/48/48 50/50/50 47/47/47
f 47/47/47 50/50/50 49/49/49
f 48/48/48 51/51/51 50/50/50
f 50/50/50 52/52/52 49/49/49
f 51/51/51 53/53/53 50/50/50
f 50/50/50 53/53/53 52/52/52
f 53/53/53 54/54/54 52/52/52
