g Ellect_Floor02
v 0.062878415 -0.20076019 0.9530272
v -0.011027832 -0.25 7.6293944E-08
v -0.011027832 0 0
v 0.23230103 0.034163207 0.90763044
v -0.011027832 0.25 0
v 0.57697266 -0.2690866 1.3837882
v 0.40172362 0.2690863 0.862234
v 0.74639523 -0.034163512 1.3383915
v 1.8307306 -0.2640683 1.4533874
v 0.91581786 0.20075989 1.2929949
v 1.5558245 -0.055632323 1.3855133
v 2.0710344 -0.22036193 1.0448761
v 1.2809186 0.15280335 1.317639
v 1.7961285 -0.011926879 0.9770019
v 2.4752972 -0.12894867 0.58877623
v 1.5212225 0.19650878 0.9091278
v 2.2003913 0.079486996 0.5209021
v 2.4520319 -0.25 0
v 1.9254851 0.28792265 0.45302793
v 2.4520319 0 0
v 2.4520319 0.25 0
vt 0.7871157 1
vt 0.929289 1
vt 0.92928904 0.50000006
vt 0.78711575 0.50000006
vt 0.9292891 1.0430813E-07
vt 0.64494246 1
vt 0.7871159 9.685755E-08
vt 0.64494246 0.50000006
vt 0.5027691 1
vt 0.6449425 8.940697E-08
vt 0.50276923 0.50000006
vt 0.36059588 1
vt 0.50276923 8.195639E-08
vt 0.3605959 0.50000006
vt 0.21842259 1
vt 0.36059597 7.4505806E-08
vt 0.21842268 0.50000006
vt 0.07624931 1
vt 0.21842274 6.7055225E-08
vt 0.07624941 0.50000006
vt 0.07624946 5.9604645E-08
vn -0.7874399 0.44453636 0.4269963
vn -0.9300273 0.33835763 0.14339946
vn -0.91192466 0.34010404 0.2296142
vn -0.75026757 0.4452403 0.48873267
vn -0.8853729 0.33910185 0.31800106
vn -0.3708709 0.42996135 0.82315737
vn -0.70476896 0.44904858 0.5492324
vn -0.2960934 0.38840157 0.8726241
vn 0.3857279 0.7008426 0.60002804
vn -0.2387271 0.3574847 0.902892
vn 0.25618887 0.5820638 0.77173114
vn 0.45969814 0.7573324 0.46381605
vn 0.16255598 0.4808873 0.8615817
vn 0.46480975 0.7606222 0.453217
vn 0.68999356 0.656489 0.30484587
vn 0.4702167 0.7640256 0.44177043
vn 0.6209876 0.64652675 0.44314522
vn 0.8495205 0.52135986 0.08061507
vn 0.5363162 0.65976155 0.5263836
vn 0.80416214 0.5238213 0.28095254
vn 0.7058163 0.497862 0.5039412
g Ellect_Floor02_0
f 3/3/3 2/2/2 1/1/1
f 4/4/4 3/3/3 1/1/1
f 5/5/5 3/3/3 4/4/4
f 4/4/4 1/1/1 6/6/6
f 7/7/7 5/5/5 4/4/4
f 8/8/8 4/4/4 6/6/6
f 7/7/7 4/4/4 8/8/8
f 8/8/8 6/6/6 9/9/9
f 10/10/10 7/7/7 8/8/8
f 11/11/11 8/8/8 9/9/9
f 10/10/10 8/8/8 11/11/11
f 11/11/11 9/9/9 12/12/12
f 13/13/13 10/10/10 11/11/11
f 14/14/14 11/11/11 12/12/12
f 13/13/13 11/11/11 14/14/14
f 14/14/14 12/12/12 15/15/15
f 16/16/16 13/13/13 14/14/14
f 17/17/17 14/14/14 15/15/15
f 16/16/16 14/14/14 17/17/17
f 17/17/17 15/15/15 18/18/18
f 19/19/19 16/16/16 17/17/17
f 20/20/20 17/17/17 18/18/18
f 19/19/19 17/17/17 20/20/20
f 21/21/21 19/19/19 20/20/20
