g Line001
v 12.093813 6.7525 -1.3942082E-06
v 12.093813 6.7825 -1.3955196E-06
v 14.401511 6.7825 -1.3960637E-06
v 14.3715105 6.7525 -1.3936641E-06
v 14.401511 4.2174997 -1.3959263E-06
v 14.3715105 4.2174997 -1.3946103E-06
v 1.829237 2.6225002 -9.046386E-07
v 1.829237 2.6525002 -9.0595E-07
v 2.8272839 2.6525002 -9.0649417E-07
v 2.797284 2.6225002 -9.0409446E-07
v 2.8272839 1.7197247 -1.100933E-06
v 2.797284 1.7197247 -1.099617E-06
v -12.093812 6.7525 -1.3942082E-06
v -14.401512 6.7825 -1.3960637E-06
v -12.093812 6.7825 -1.3955196E-06
v -14.371512 6.7525 -1.3936641E-06
v -14.401512 4.2174997 -1.3959263E-06
v -14.371512 4.2174997 -1.3946103E-06
v -1.829237 2.6225002 -9.046386E-07
v -2.8272839 2.6525002 -9.0649417E-07
v -1.829237 2.6525002 -9.0595E-07
v -2.797284 2.6225002 -9.0409446E-07
v -2.8272839 1.7197247 -1.100933E-06
v -2.797284 1.7197247 -1.099617E-06
v 12.093813 -6.7525005 -1.3942082E-06
v 14.401511 -6.7825003 -1.3960637E-06
v 12.093813 -6.7825003 -1.3955196E-06
v 14.3715105 -6.7525005 -1.3936641E-06
v 14.401511 -4.2174997 -1.3959263E-06
v 14.3715105 -4.2174997 -1.3946103E-06
v 1.829237 -2.6225007 -9.046386E-07
v 2.8272839 -2.6525006 -9.0649417E-07
v 1.829237 -2.6525006 -9.0595E-07
v 2.797284 -2.6225007 -9.0409446E-07
v 2.8272839 -1.7197247 -1.100933E-06
v 2.797284 -1.7197247 -1.099617E-06
v -12.093812 -6.7525005 -1.3942082E-06
v -12.093812 -6.7825003 -1.3955196E-06
v -14.401512 -6.7825003 -1.3960637E-06
v -14.371512 -6.7525005 -1.3936641E-06
v -14.401512 -4.2174997 -1.3959263E-06
v -14.371512 -4.2174997 -1.3946103E-06
v -1.829237 -2.6225007 -9.046386E-07
v -1.829237 -2.6525006 -9.0595E-07
v -2.8272839 -2.6525006 -9.0649417E-07
v -2.797284 -2.6225007 -9.0409446E-07
v -2.8272839 -1.7197247 -1.100933E-06
v -2.797284 -1.7197247 -1.099617E-06
v -0.02180908 0.29999998 -7.089459E-07
v 0.02180908 0.29999998 -7.1252214E-07
v 0.02180908 0.021887207 -6.7683476E-07
v -0.02180908 0.021887207 -6.7325846E-07
v -0 0 -6.717794E-07
v -0.02180908 -0.021886596 -6.6672413E-07
v -0.29999998 0.021887207 -6.732584E-07
v -0.29999998 -0.021886596 -6.667241E-07
v 0.02180908 -0.021886596 -6.7030044E-07
v -0.02180908 -0.29999998 -6.3103676E-07
v 0.02180908 -0.29999998 -6.34613E-07
v 0.29999998 -0.021886596 -6.703003E-07
v 0.29999998 0.021887207 -6.7683465E-07
v -11.98077 5.970482 -1.37038E-06
v -11.803194 5.970482 -1.37038E-06
v -11.803194 5.6459594 -1.3528667E-06
v -11.98077 5.6459594 -1.3528667E-06
v -12.08077 5.808221 -1.3659945E-06
v -11.98077 5.3582206 -1.3616233E-06
v -12.08077 6.158221 -1.3659945E-06
v -12.08077 5.4582205 -1.3659945E-06
v -11.98077 6.2582207 -1.3616233E-06
v -13.852598 5.3582206 -1.3616233E-06
v -13.752599 6.158221 -1.3659945E-06
v -13.752599 5.4582205 -1.3659945E-06
v -13.852598 6.2582207 -1.3616233E-06
v -12.909476 5.5288596 -1.3613252E-06
v -12.909476 6.0825815 -1.3613252E-06
v -12.600736 6.0825815 -1.3613252E-06
v -12.600736 5.5288596 -1.3613252E-06
v -13.29431 5.5288596 -1.3613252E-06
v -13.29431 6.0825815 -1.3613252E-06
v -12.98557 6.0825815 -1.3613252E-06
v -12.98557 5.5288596 -1.3613252E-06
v -13.679144 5.5288596 -1.3613252E-06
v -13.679144 6.0825815 -1.3613252E-06
v -13.370403 6.0825815 -1.3613252E-06
v -13.370403 5.5288596 -1.3613252E-06
vt -44.15973 81.80133
vt -44.15973 84.80133
vt 186.60999 84.80133
vt 183.60999 81.80133
vt 186.60999 -171.69867
vt 183.60999 -171.69867
vt -1070.6174 -331.19864
vt -1070.6174 -328.19864
vt -970.81274 -328.19864
vt -973.81274 -331.19864
vt -970.81274 -421.4762
vt -973.81274 -421.4762
vt -2462.9224 81.80133
vt -2693.6924 84.80133
vt -2462.9224 84.80133
vt -2690.6924 81.80133
vt -2693.6924 -171.69867
vt -2690.6924 -171.69867
vt -1436.4648 -331.19864
vt -1536.2695 -328.19864
vt -1436.4648 -328.19864
vt -1533.2695 -331.19864
vt -1536.2695 -421.4762
vt -1533.2695 -421.4762
vt -44.15979 -1268.6987
vt 186.60999 -1271.6987
vt -44.15979 -1271.6987
vt 183.60999 -1268.6987
vt 186.60999 -1015.19867
vt 183.60999 -1015.19867
vt -1070.6174 -855.6987
vt -970.81274 -858.6987
vt -1070.6174 -858.6987
vt -973.81274 -855.6987
vt -970.81274 -765.42114
vt -973.81274 -765.42114
vt -2462.9224 -1268.6987
vt -2462.9224 -1271.6987
vt -2693.6924 -1271.6987
vt -2690.6924 -1268.6987
vt -2693.6924 -1015.19867
vt -2690.6924 -1015.19867
vt -1436.4648 -855.6987
vt -1436.4648 -858.6987
vt -1536.2695 -858.6987
vt -1533.2695 -855.6987
vt -1536.2695 -765.42114
vt -1533.2695 -765.42114
vt -1255.722 -563.44867
vt -1251.3602 -563.44867
vt -1251.3602 -591.25995
vt -1255.722 -591.25995
vt -1253.5411 -593.44867
vt -1255.722 -595.6373
vt -1283.5411 -591.25995
vt -1283.5411 -595.6373
vt -1251.3602 -595.6373
vt -1255.722 -623.44867
vt -1251.3602 -623.44867
vt -1223.5411 -595.6373
vt -1223.5411 -591.25995
vt -2428.801 3.599537
vt -2411.0435 3.599537
vt -2411.0435 -28.85271
vt -2428.801 -28.85271
vt -2438.801 -12.626587
vt -2428.801 -57.626587
vt -2438.801 22.373413
vt -2438.801 -47.626587
vt -2428.801 32.373413
vt -2638.801 -57.626587
vt -2628.801 22.373413
vt -2628.801 -47.626587
vt -2638.801 32.373413
vt 0 0
vt 0 1
vt 1 1
vt 1 0
vt 0 0
vt 0 1
vt 1 1
vt 1 0
vt 0 0
vt 0 1
vt 1 1
vt 1 0
vn -0 0 1
vn -0 0 1
vn -0 0 1
vn -0 0 1
vn -0 0 1
vn -0 0 1
vn -0 0 1
vn -0 0 1
vn -0 0 1
vn -0 0 1
vn 1.6815513E-07 -2.1244915E-07 1
vn 1.6815513E-07 -2.1244915E-07 1
vn -0 0 1
vn -0 0 1
vn -0 0 1
vn -0 0 1
vn -0 0 1
vn -0 0 1
vn -0 0 1
vn -0 0 1
vn -0 0 1
vn -0 0 1
vn -1.6815387E-07 -2.1244915E-07 1
vn -1.6815387E-07 -2.1244915E-07 1
vn -0 0 1
vn -0 0 1
vn -0 0 1
vn -0 0 1
vn -0 0 1
vn -0 0 1
vn -0 0 1
vn -0 0 1
vn -0 0 1
vn -0 0 1
vn 1.6815387E-07 2.1244908E-07 1
vn 1.6815387E-07 2.1244908E-07 1
vn -0 0 1
vn -0 0 1
vn -0 0 1
vn -0 0 1
vn -0 0 1
vn -0 0 1
vn -0 0 1
vn -0 0 1
vn -0 0 1
vn -0 0 1
vn -1.6815387E-07 2.1244908E-07 1
vn -1.6815387E-07 2.1244908E-07 1
vn -0 1.2831991E-07 1
vn -0 1.2831991E-07 1
vn -0 1.3531526E-07 1
vn -0 1.3531526E-07 1
vn -0 1.4927464E-07 1
vn -0 1.353153E-07 1
vn -0 1.4927463E-07 1
vn -0 1.4927463E-07 1
vn -0 1.353153E-07 1
vn -0 1.2831964E-07 1
vn -0 1.2831964E-07 1
vn -0 1.4927465E-07 1
vn -0 1.4927465E-07 1
vn -0 0 1
vn -0 0 1
vn -0 0 1
vn -0 0 1
vn -0 0 1
vn -0 0 1
vn -0 0 1
vn -0 0 1
vn -0 0 1
vn -0 0 1
vn -0 0 1
vn -0 0 1
vn -0 0 1
vn -0 0 1
vn -0 0 1
vn -0 0 1
vn -0 0 1
vn -0 0 1
vn -0 0 1
vn -0 0 1
vn -0 0 1
vn -0 0 1
vn -0 0 1
vn -0 0 1
vn -0 0 1
g Line001_0
f 3/3/3 2/2/2 1/1/1
f 4/4/4 3/3/3 1/1/1
f 3/3/3 4/4/4 5/5/5
f 4/4/4 6/6/6 5/5/5
f 9/9/9 8/8/8 7/7/7
f 10/10/10 9/9/9 7/7/7
f 9/9/9 10/10/10 11/11/11
f 10/10/10 12/12/12 11/11/11
f 15/15/15 14/14/14 13/13/13
f 14/14/14 16/16/16 13/13/13
f 14/14/14 17/17/17 16/16/16
f 17/17/17 18/18/18 16/16/16
f 21/21/21 20/20/20 19/19/19
f 20/20/20 22/22/22 19/19/19
f 20/20/20 23/23/23 22/22/22
f 23/23/23 24/24/24 22/22/22
f 27/27/27 26/26/26 25/25/25
f 26/26/26 28/28/28 25/25/25
f 26/26/26 29/29/29 28/28/28
f 29/29/29 30/30/30 28/28/28
f 33/33/33 32/32/32 31/31/31
f 32/32/32 34/34/34 31/31/31
f 32/32/32 35/35/35 34/34/34
f 35/35/35 36/36/36 34/34/34
f 39/39/39 38/38/38 37/37/37
f 40/40/40 39/39/39 37/37/37
f 39/39/39 40/40/40 41/41/41
f 40/40/40 42/42/42 41/41/41
f 45/45/45 44/44/44 43/43/43
f 46/46/46 45/45/45 43/43/43
f 45/45/45 46/46/46 47/47/47
f 46/46/46 48/48/48 47/47/47
f 51/51/51 50/50/50 49/49/49
f 52/52/52 51/51/51 49/49/49
f 53/53/53 51/51/51 52/52/52
f 53/53/53 52/52/52 54/54/54
f 52/52/52 55/55/55 54/54/54
f 55/55/55 56/56/56 54/54/54
f 57/57/57 53/53/53 54/54/54
f 53/53/53 57/57/57 51/51/51
f 57/57/57 54/54/54 58/58/58
f 59/59/59 57/57/57 58/58/58
f 57/57/57 60/60/60 51/51/51
f 60/60/60 61/61/61 51/51/51
f 64/64/64 63/63/63 62/62/62
f 65/65/65 64/64/64 62/62/62
f 66/66/66 65/65/65 62/62/62
f 65/65/65 66/66/66 67/67/67
f 68/68/68 66/66/66 62/62/62
f 66/66/66 69/69/69 67/67/67
f 70/70/70 68/68/68 62/62/62
f 67/67/67 69/69/69 71/71/71
f 72/72/72 68/68/68 70/70/70
f 69/69/69 73/73/73 71/71/71
f 74/74/74 72/72/72 70/70/70
f 71/71/71 73/73/73 74/74/74
f 73/73/73 72/72/72 74/74/74
f 77/77/77 76/76/76 75/75/75
f 78/78/78 77/77/77 75/75/75
f 81/81/81 80/80/80 79/79/79
f 82/82/82 81/81/81 79/79/79
f 85/85/85 84/84/84 83/83/83
f 86/86/86 85/85/85 83/83/83
