g Plane005_1
v -1.9819607 3.3722382 -0.9411761
v -1.5420674 3.5588086 -0.8441168
v -1.708457 2.5109916 -0.509991
v -1.2903203 2.71706 -0.3670486
v -1.102174 3.7453794 -0.74705786
v -1.3730255 1.6300089 -0.1463065
v -0.8721834 2.9231286 -0.22410606
v -1.0385727 1.8753114 0.11002016
v -0.8629693 0.6649325 0.124751225
v -0.7041197 2.1206143 0.36634666
v -0.6422517 1.0229343 0.3714364
v -0.26257354 -0.23684387 0.22844076
v -0.4215343 1.3809359 0.618122
v -0.14410682 0.16307022 0.48096704
v -0.025640564 0.5629846 0.7334937
v -1.8679782 -2.7830539 -1.2042476
v -2.2524068 -2.414457 -1.3180828
v -1.6169354 -2.3079913 -0.51378846
v -2.001364 -1.9393944 -0.62762386
v -2.6368356 -2.0458605 -1.4319181
v -1.3658926 -1.8329289 0.17667052
v -2.3857932 -1.5707977 -0.74145913
v -1.7503213 -1.464332 0.06283517
v -0.8877179 -1.4708362 0.61113846
v -2.1347504 -1.095735 -0.05100014
v -1.2092483 -1.0316947 0.5916336
v -0.33143133 -1.0404241 1.1314574
v -1.5307791 -0.5925535 0.57212895
v -0.6529618 -0.6012827 1.1119527
v -0.9744928 -0.16214111 1.092448
v 3.3125298 -1.3499342 -0.9403521
v 2.950592 -1.6059557 -1.1433045
v 2.71018 -1.108622 -0.17784773
v 2.3685057 -1.4080023 -0.35495085
v 2.5886548 -1.8619775 -1.346256
v 2.0530925 -0.81363827 0.53076595
v 2.0268319 -1.7073828 -0.5320534
v 1.7864194 -1.2100484 0.4334029
v 1.3193812 -0.4376686 0.990811
v 1.519746 -1.6064587 0.33604056
v 1.0965565 -0.8692662 1.0333303
v 0.4932083 0.008143005 1.3548412
v 0.87373173 -1.3008636 1.07585
v 0.3307852 -0.42788833 1.5005479
v 0.16836227 -0.86392117 1.646253
vt -1.3909066E-08 0
vt 7.946628E-09 0.5
vt 0.24999999 0
vt 0.25 0.5
vt 2.9802322E-08 1
vt 0.5 0
vt 0.25000003 1
vt 0.5 0.5
vt 0.75 0
vt 0.5 1
vt 0.75 0.49999994
vt 1 0
vt 0.75 0.99999994
vt 1 0.49999994
vt 1 0.99999994
vt -1.3909066E-08 0
vt 7.946628E-09 0.5
vt 0.24999999 0
vt 0.25 0.5
vt 2.9802322E-08 1
vt 0.5 0
vt 0.25000003 1
vt 0.5 0.5
vt 0.75 0
vt 0.5 1
vt 0.75 0.49999994
vt 1 0
vt 0.75 0.99999994
vt 1 0.49999994
vt 1 0.99999994
vt -1.3909066E-08 0
vt 7.946628E-09 0.5
vt 0.24999999 0
vt 0.25 0.5
vt 2.9802322E-08 1
vt 0.5 0
vt 0.25000003 1
vt 0.5 0.5
vt 0.75 0
vt 0.5 1
vt 0.75 0.49999994
vt 1 0
vt 0.75 0.99999994
vt 1 0.49999994
vt 1 0.99999994
vn -0.33601996 0.33415785 0.8805846
vn -0.3597298 0.3578258 0.86171645
vn -0.4131793 0.2744658 0.86830366
vn -0.4557922 0.3159312 0.83213025
vn -0.3829542 0.38104472 0.84151703
vn -0.5971915 0.06456833 0.7994956
vn -0.4963242 0.35715726 0.7912655
vn -0.63979185 0.104733 0.76137865
vn -0.5692317 -0.18339847 0.80146134
vn -0.6843437 0.14531371 0.7145332
vn -0.6154298 -0.15027025 0.7737345
vn -0.592461 -0.2649156 0.76079535
vn -0.67375225 -0.10748337 0.7310987
vn -0.6327339 -0.25818577 0.7300602
vn -0.68410134 -0.23365122 0.69095045
vn -0.6476207 -0.49709052 0.57748467
vn -0.64762074 -0.49709028 0.5774848
vn -0.6476209 -0.4970901 0.57748467
vn -0.6476207 -0.49709037 0.57748467
vn -0.6476205 -0.49709046 0.5774849
vn -0.5848979 -0.39045703 0.71094143
vn -0.64762044 -0.49709067 0.5774847
vn -0.59195733 -0.40733793 0.69545835
vn -0.5036026 -0.32392618 0.8009095
vn -0.597639 -0.42037246 0.68272585
vn -0.505926 -0.33155066 0.7963121
vn -0.49716154 -0.3283399 0.8031334
vn -0.5080802 -0.33679697 0.7927309
vn -0.49716145 -0.32834005 0.8031334
vn -0.4971612 -0.32834008 0.80313355
vn 0.29956654 -0.81573737 0.49480546
vn 0.3322149 -0.81515527 0.47450528
vn 0.35341787 -0.7558344 0.55118966
vn 0.41205952 -0.7524313 0.51386195
vn 0.36444992 -0.8133753 0.45342794
vn 0.42940974 -0.52315396 0.7361503
vn 0.46934617 -0.7457727 0.47279724
vn 0.52081877 -0.5162969 0.6798421
vn 0.4378841 -0.19138926 0.8784234
vn 0.602666 -0.50530005 0.61762905
vn 0.5192004 -0.19034177 0.8331872
vn 0.49842334 0.025201362 0.8665674
vn 0.5912493 -0.18680124 0.784557
vn 0.56985486 0.022858083 0.8214274
vn 0.6363552 0.02063483 0.7711201
g Plane005_1_0
f 3/3/3 2/2/2 1/1/1
f 2/2/2 3/3/3 4/4/4
f 4/4/4 5/5/5 2/2/2
f 6/6/6 4/4/4 3/3/3
f 5/5/5 4/4/4 7/7/7
f 4/4/4 6/6/6 8/8/8
f 8/8/8 7/7/7 4/4/4
f 9/9/9 8/8/8 6/6/6
f 7/7/7 8/8/8 10/10/10
f 8/8/8 9/9/9 11/11/11
f 11/11/11 10/10/10 8/8/8
f 12/12/12 11/11/11 9/9/9
f 10/10/10 11/11/11 13/13/13
f 11/11/11 12/12/12 14/14/14
f 14/14/14 13/13/13 11/11/11
f 13/13/13 14/14/14 15/15/15
f 18/18/18 17/17/17 16/16/16
f 17/17/17 18/18/18 19/19/19
f 19/19/19 20/20/20 17/17/17
f 21/21/21 19/19/19 18/18/18
f 20/20/20 19/19/19 22/22/22
f 19/19/19 21/21/21 23/23/23
f 23/23/23 22/22/22 19/19/19
f 24/24/24 23/23/23 21/21/21
f 22/22/22 23/23/23 25/25/25
f 23/23/23 24/24/24 26/26/26
f 26/26/26 25/25/25 23/23/23
f 27/27/27 26/26/26 24/24/24
f 25/25/25 26/26/26 28/28/28
f 26/26/26 27/27/27 29/29/29
f 29/29/29 28/28/28 26/26/26
f 28/28/28 29/29/29 30/30/30
f 33/33/33 32/32/32 31/31/31
f 32/32/32 33/33/33 34/34/34
f 34/34/34 35/35/35 32/32/32
f 36/36/36 34/34/34 33/33/33
f 35/35/35 34/34/34 37/37/37
f 34/34/34 36/36/36 38/38/38
f 38/38/38 37/37/37 34/34/34
f 39/39/39 38/38/38 36/36/36
f 37/37/37 38/38/38 40/40/40
f 38/38/38 39/39/39 41/41/41
f 41/41/41 40/40/40 38/38/38
f 42/42/42 41/41/41 39/39/39
f 40/40/40 41/41/41 43/43/43
f 41/41/41 42/42/42 44/44/44
f 44/44/44 43/43/43 41/41/41
f 43/43/43 44/44/44 45/45/45
